# xmcd
#
# Track frame offsets: 
#        183
#        9980
#        29363
#        45468
#        57100
#        73290
#        84398
#        96670
#        110350
#        123458
#        135503
#        145540
#        159068
#        171760
#        183213
#        196053
#        208393
#        221788
#        236098
#        249388
#        262823
#        275250
#        289960
#        304205
#
# Disc length: 4267 seconds
#
# Revision: 4
# Processed by: cddbd v1.5.2PL0 Copyright (c) Steve Scherf et al.
# Submitted via: ExactAudioCopyFreeDBPlugin 1.0
#
DISCID=5710a918
DTITLE=Jackie Wilson - Jackie Wilson:  Mr. Excitement! [Rhino box set]
DYEAR=1992
DGENRE=Rhythm and Blues
TTITLE0=Shake! Shake! Shake!
TTITLE1=Danny Boy (Version II)
TTITLE2=No Pity (In the Naked City)
TTITLE3=Think Twice (with LaVern Baker)
TTITLE4=I Believe
TTITLE5=Whispers (Gettin' Louder)
TTITLE6=I've Lost You
TTITLE7=Who Am I
TTITLE8=Just Be Sincere
TTITLE9=I Don't Want to Lose You
TTITLE10=Stop Lying
TTITLE11=(Your Love Keeps Lifting Me) Higher and Higher
TTITLE12=Since You Showed Me How to Be Happy
TTITLE13=Open the Door to Your Heart
TTITLE14=Chain Gang (with Count Basie)
TTITLE15=Even When You Cry (with Count Basie)
TTITLE16=I Get the Sweetest Feeling
TTITLE17=For Once in My Life
TTITLE18=(I Can Feel Those Vibrations) This Love is Real
TTITLE19=This Love is Mine
TTITLE20=You Got Me Walking
TTITLE21=No More Goodbyes
TTITLE22=Just Call My Name
TTITLE23=Don't Burn No Bridges (with The Chi-Lites)
EXTD=3-CD Box Set - cost $42.99
EXTT0=
EXTT1=
EXTT2=
EXTT3=
EXTT4=
EXTT5=
EXTT6=
EXTT7=
EXTT8=
EXTT9=
EXTT10=
EXTT11=
EXTT12=
EXTT13=
EXTT14=
EXTT15=
EXTT16=
EXTT17=
EXTT18=
EXTT19=
EXTT20=
EXTT21=
EXTT22=
EXTT23=
PLAYORDER=
